<?xml version="1.0" encoding="UTF-8" standalone="no"?>
<!DOCTYPE svg PUBLIC "-//W3C//DTD SVG 20010904//EN" "http://www.w3.org/TR/2001/REC-SVG-20010904/DTD/svg10.dtd">
<svg version="1.0" xmlns="http://www.w3.org/2000/svg" width="384.000000pt" height="384.000000pt" viewBox="0 0 384.000000 384.000000" preserveAspectRatio="xMidYMid meet">
<g transform="translate(0.000000,384.000000) scale(0.100000,-0.100000)" fill="#000000" stroke="none">
<path d="M496 3031 c5 -5 122 -78 259 -162 286 -174 749 -457 993 -606 92 -56 169 -102 172 -103 5 0 255 151 276 167 5 4 19 13 30 19 27 15 758 460 819 499 28 17 107 66 178 109 70 43 127 79 127 82 0 2 -644 4 -1432 4 -870 0 -1428 -4 -1422 -9z"/>
<path d="M0 1920 l0 -882 33 20 c17 10 119 73 225 138 106 66 201 124 211 129 10 6 232 141 494 300 362 221 473 293 464 302 -7 6 -165 105 -352 219 -187 114 -502 306 -700 427 -198 121 -363 221 -367 224 -5 2 -8 -393 -8 -877z"/>
<path d="M3805 2781 c-176 -108 -436 -267 -460 -281 -16 -9 -57 -34 -90 -56 -33 -21 -73 -45 -88 -54 -32 -17 -437 -264 -572 -349 -98 -61 -138 -85 -172 -103 -13 -6 -23 -14 -23 -17 0 -3 23 -19 52 -36 28 -16 66 -39 84 -50 18 -11 111 -68 206 -126 228 -139 877 -536 998 -610 l95 -58 3 440 c1 241 1 637 0 879 l-3 440 -30 -19z"/>
<path d="M1837 1632 c-224 -136 -999 -609 -1042 -637 -27 -17 -107 -66 -177 -109 -71 -43 -128 -79 -128 -82 0 -2 647 -4 1437 -4 l1437 0 -45 28 c-25 15 -54 32 -65 39 -25 15 -1097 671 -1227 750 -56 35 -104 63 -107 62 -3 0 -40 -21 -83 -47z"/>
</g>
</svg>