<?xml version="1.0" encoding="utf-8"?>
<svg version="1.1" id="Layer_1" xmlns="http://www.w3.org/2000/svg" xmlns:xlink="http://www.w3.org/1999/xlink" x="0px" y="0px"
	 viewBox="0 0 357 67" style="enable-background:new 0 0 357 67;" xml:space="preserve">
<style type="text/css">
	.st0{fill:none;stroke:#2C3B45;stroke-width:1.46;}
	.st1{fill:#0065BD;}
	.st2{fill:#2C3B45;}
	.st3{fill:#8E979C;}
</style>
<title>Scottish Government logo</title>
<g>
	<line class="st0" x1="115.7" y1="61.1" x2="115.7" y2="0"/>
	<polygon class="st1" points="12.2,0 51.5,22.9 90.8,0 12.2,0 	"/>
	<polygon class="st1" points="12.2,61.1 51.5,38.2 90.8,61.1 12.2,61.1 	"/>
	<polygon class="st1" points="0,6.9 0,54.2 39.1,30.5 0,6.9 	"/>
	<polygon class="st1" points="103.5,6.9 103.5,54.2 64.4,30.5 103.5,6.9 	"/>
	<path class="st2" d="M132.8,66c2.9,0,6.1-1.2,6.1-5.4V49.3h-2.6v1.7c-0.9-1.2-2.3-1.9-3.8-1.9c-3.1,0-5.3,2.2-5.3,6.1
		s2.2,6.1,5.3,6.1c1.5,0,2.9-0.8,3.8-2v1.3c0,2.5-1.8,3.3-3.5,3.3c-1.4,0.1-2.9-0.5-3.8-1.5l-1.2,1.9C129.2,65.5,131,66.1,132.8,66
		L132.8,66L132.8,66z M133.3,58.9c-2.1,0-3.4-1.5-3.4-3.8s1.3-3.8,3.4-3.8c1.2,0,2.3,0.6,3.1,1.6v4.5
		C135.6,58.3,134.5,58.9,133.3,58.9L133.3,58.9L133.3,58.9z M147.7,61.5c3.3,0.1,6.1-2.5,6.1-5.9c0-0.1,0-0.3,0-0.4
		c0-3.4-2.8-6.1-6.1-6.1c-3.4,0-6.1,2.8-6.1,6.1c-0.1,3.3,2.4,6.1,5.7,6.2C147.4,61.5,147.5,61.5,147.7,61.5L147.7,61.5L147.7,61.5z
		 M147.7,59.2c-2.2,0-3.4-1.8-3.4-4s1.2-3.9,3.4-3.9s3.4,1.8,3.4,3.9S149.9,59.2,147.7,59.2L147.7,59.2z M162,61.2l4.9-11.9h-2.8
		l-3.5,8.9l-3.5-8.9h-2.8l4.9,11.9H162L162,61.2z M168.6,61.5c1,0,1.7-0.8,1.7-1.8c0-1-0.8-1.7-1.7-1.7s-1.7,0.8-1.7,1.7
		C166.9,60.7,167.6,61.4,168.6,61.5L168.6,61.5L168.6,61.5z M177.6,61.5c3.2,0,5-1.6,5-3.7c0-4.7-7.2-3.2-7.2-5.2
		c0-0.8,0.8-1.5,2.2-1.5c1.3,0,2.6,0.5,3.5,1.4l1.1-1.8c-1.3-1.1-2.9-1.7-4.6-1.6c-3,0-4.7,1.7-4.7,3.6c0,4.6,7.2,2.9,7.2,5.2
		c0,0.9-0.8,1.6-2.4,1.6c-1.5,0-2.9-0.6-4-1.7l-1.2,1.8C174,60.9,175.8,61.5,177.6,61.5L177.6,61.5L177.6,61.5z M190.5,61.5
		c1.8,0.1,3.5-0.7,4.6-2.1l-1.7-1.6c-0.6,0.9-1.6,1.5-2.8,1.4c-2.2,0-3.6-1.7-3.6-4c-0.2-2,1.3-3.7,3.3-3.9c0.1,0,0.2,0,0.4,0
		c1.1,0,2.1,0.5,2.8,1.4l1.7-1.5c-1.1-1.4-2.8-2.2-4.6-2.1c-3.4,0-6.2,2.8-6.2,6.2C184.3,58.7,187.1,61.5,190.5,61.5L190.5,61.5
		L190.5,61.5z M202.4,61.5c3.3,0.1,6.1-2.5,6.1-5.9c0-0.1,0-0.3,0-0.4c0-3.4-2.8-6.1-6.1-6.1c-3.4,0-6.1,2.8-6.1,6.1
		c-0.1,3.3,2.4,6.1,5.7,6.2C202.1,61.5,202.2,61.5,202.4,61.5L202.4,61.5L202.4,61.5z M202.4,59.2c-2.2,0-3.4-1.8-3.4-4
		s1.2-3.9,3.4-3.9s3.4,1.8,3.4,3.9S204.6,59.2,202.4,59.2L202.4,59.2z M214.6,61.5c0.9,0.1,1.7-0.2,2.4-0.8l-0.6-2
		c-0.3,0.3-0.7,0.4-1.1,0.4c-0.7,0-1.2-0.6-1.2-1.3c0-0.1,0-0.1,0-0.2v-6.2h2.4v-2.2h-2.4V46h-2.6v3.2h-2v2.2h2v6.9
		c-0.2,1.5,0.9,2.9,2.4,3.1C214.2,61.5,214.4,61.5,214.6,61.5L214.6,61.5L214.6,61.5z"/>
	<path class="st3" d="M140.8,38.9l-4.1-6.5c2.4-0.4,4.1-2.4,3.9-4.8c0-3-2.1-5.1-5.4-5.1H128v16.4h2.9v-6.1h2.9l3.6,6.1H140.8
		L140.8,38.9z M134.9,30.3h-4V25h4c1.4-0.1,2.7,0.9,2.8,2.4c0.1,1.4-0.9,2.7-2.4,2.8C135.2,30.2,135.1,30.2,134.9,30.3L134.9,30.3
		L134.9,30.3z M144.6,25.6c0.9,0,1.6-0.7,1.6-1.6s-0.7-1.6-1.6-1.6c-0.9,0-1.6,0.7-1.6,1.6C142.9,24.9,143.7,25.6,144.6,25.6
		C144.5,25.6,144.5,25.6,144.6,25.6L144.6,25.6z M145.8,38.9V27h-2.6v11.9L145.8,38.9L145.8,38.9z M160,38.9V27h-2.6v1.6
		c-0.9-1.2-2.3-1.9-3.8-1.9c-3.1,0-5.3,2.4-5.3,6.2s2.2,6.2,5.3,6.2c1.5,0,2.9-0.7,3.8-1.9v1.6L160,38.9L160,38.9z M154.3,36.9
		c-2.1,0-3.4-1.7-3.4-4s1.3-3.9,3.4-3.9c1.2,0,2.4,0.6,3.1,1.6v4.7C156.6,36.3,155.5,36.9,154.3,36.9L154.3,36.9L154.3,36.9z
		 M168,43.8c2.9,0,6.1-1.2,6.1-5.4V27h-2.6v1.6c-0.9-1.2-2.3-1.9-3.8-1.9c-3.1,0-5.3,2.2-5.3,6.1s2.2,6.1,5.3,6.1
		c1.5,0,2.9-0.8,3.8-2v1.3c0,2.5-1.8,3.3-3.5,3.3c-1.4,0.1-2.8-0.5-3.8-1.5L163,42C164.4,43.2,166.2,43.9,168,43.8L168,43.8
		L168,43.8z M168.5,36.6c-2.1,0-3.4-1.5-3.4-3.8s1.3-3.9,3.4-3.9c1.2,0,2.3,0.6,3.1,1.6V35C170.8,36,169.7,36.6,168.5,36.6
		L168.5,36.6L168.5,36.6z M188,38.9v-8.4c0-2.4-1.3-3.8-3.9-3.8c-1.6,0-3.1,0.7-4.2,1.9v-6.1h-2.6v16.4h2.6v-8.3
		c0.7-1,1.9-1.6,3.1-1.6c1.5,0,2.4,0.5,2.4,2.4v7.5L188,38.9L188,38.9z M202.2,38.9V27h-2.6v1.6c-0.9-1.2-2.3-1.9-3.8-1.9
		c-3.1,0-5.3,2.4-5.3,6.2s2.2,6.2,5.3,6.2c1.5,0,2.9-0.7,3.8-1.9v1.6L202.2,38.9L202.2,38.9z M196.5,36.9c-2.1,0-3.4-1.7-3.4-4
		s1.3-3.9,3.3-3.9c1.2,0,2.4,0.6,3.1,1.6v4.7C198.9,36.3,197.7,36.9,196.5,36.9L196.5,36.9L196.5,36.9z M208.4,39.2
		c0.9,0.1,1.8-0.2,2.4-0.8l-0.6-2c-0.3,0.3-0.7,0.4-1.2,0.4c-0.7,0-1.2-0.6-1.2-1.3c0-0.1,0-0.1,0-0.2v-13h-2.6v13.7
		c-0.2,1.5,0.9,2.9,2.4,3.1C207.9,39.3,208.2,39.3,208.4,39.2L208.4,39.2L208.4,39.2z M215.5,39.2c0.9,0.1,1.7-0.2,2.4-0.8l-0.6-2
		c-0.3,0.3-0.7,0.4-1.1,0.4c-0.7,0-1.2-0.6-1.2-1.2c0-0.1,0-0.1,0-0.2v-6.2h2.4V27H215v-3.2h-2.6V27h-2v2.2h2v6.9
		c-0.2,1.5,0.9,2.9,2.4,3.1C215,39.2,215.2,39.2,215.5,39.2L215.5,39.2L215.5,39.2z M230.4,38.9V27h-2.6v1.6
		c-0.9-1.2-2.3-1.9-3.8-1.9c-3.1,0-5.3,2.4-5.3,6.2s2.2,6.2,5.3,6.2c1.5,0,2.9-0.7,3.8-1.9v1.6L230.4,38.9L230.4,38.9z M224.8,36.9
		c-2.1,0-3.4-1.7-3.4-4s1.3-3.9,3.3-3.9c1.2,0,2.4,0.6,3.1,1.6v4.7C227.1,36.3,225.9,36.9,224.8,36.9L224.8,36.9L224.8,36.9z
		 M237.8,39.2c3.2,0,5-1.6,5-3.7c0-4.7-7.2-3.2-7.2-5.2c0-0.8,0.8-1.5,2.2-1.5c1.3,0,2.6,0.5,3.5,1.4l1.1-1.8
		c-1.3-1.1-2.9-1.7-4.6-1.6c-3,0-4.7,1.6-4.7,3.6c0,4.6,7.2,2.9,7.2,5.2c0,0.9-0.8,1.6-2.4,1.6c-1.5,0-2.9-0.6-4-1.7l-1.2,1.8
		C234.1,38.6,235.9,39.3,237.8,39.2L237.8,39.2L237.8,39.2z M262.2,38.9v-8.4c0-2.4-1.3-3.8-3.9-3.8c-1.6,0-3.2,0.7-4.2,1.9V27h-2.6
		v11.9h2.5v-8.3c0.7-1,1.9-1.6,3.1-1.6c1.5,0,2.4,0.6,2.4,2.5v7.4L262.2,38.9L262.2,38.9z M276.4,38.9V27h-2.6v1.6
		c-0.9-1.2-2.3-1.9-3.8-1.9c-3.1,0-5.3,2.4-5.3,6.2s2.2,6.2,5.3,6.2c1.5,0,2.9-0.7,3.8-1.9v1.6L276.4,38.9L276.4,38.9z M270.7,36.9
		c-2.1,0-3.4-1.7-3.4-4s1.3-3.9,3.3-3.9c1.2,0,2.4,0.6,3.1,1.6v4.7C273,36.3,271.8,36.9,270.7,36.9L270.7,36.9L270.7,36.9z
		 M296.6,38.9v-8.4c0-2.4-1.3-3.8-3.9-3.8c-1.6,0-3.1,0.7-4.2,1.9v-6.1h-2.6v16.4h2.6v-8.3c0.7-1,1.8-1.6,3-1.6
		c1.5,0,2.4,0.5,2.4,2.4v7.5L296.6,38.9L296.6,38.9z M305.1,34.1v-2.2h-5.9v2.2L305.1,34.1L305.1,34.1z M322.7,38.9l-6.5-16.4h-3.6
		L306,38.9h3.3l1.2-3.2h7.6l1.2,3.2L322.7,38.9L322.7,38.9z M317.3,33.2h-5.9l3-7.8L317.3,33.2L317.3,33.2L317.3,33.2z M327.1,39.2
		c0.9,0.1,1.8-0.2,2.5-0.8l-0.6-2c-0.3,0.3-0.7,0.4-1.2,0.4c-0.7,0-1.2-0.6-1.2-1.3c0-0.1,0-0.1,0-0.2v-13H324v13.7
		c-0.2,1.5,0.9,2.9,2.4,3.1C326.6,39.3,326.8,39.3,327.1,39.2L327.1,39.2L327.1,39.2z M333.7,35.3v-4.7c0.7-1,1.9-1.6,3.1-1.6
		c2.1,0,3.4,1.6,3.4,3.9s-1.3,4-3.4,4C335.6,37,334.5,36.4,333.7,35.3L333.7,35.3L333.7,35.3z M333.7,38.9v-1.6
		c0.9,1.2,2.3,1.9,3.8,1.9c3.1,0,5.3-2.3,5.3-6.2s-2.2-6.2-5.3-6.2c-1.5,0-2.9,0.7-3.8,1.9v-6.2h-2.6v16.4L333.7,38.9L333.7,38.9z
		 M356.5,38.9V27h-2.6v1.6c-0.9-1.2-2.3-1.9-3.9-1.9c-3.1,0-5.3,2.4-5.3,6.2s2.2,6.2,5.3,6.2c1.5,0,2.9-0.7,3.8-1.9v1.6L356.5,38.9
		L356.5,38.9z M350.8,36.9c-2.1,0-3.4-1.7-3.4-4s1.3-3.9,3.4-3.9c1.2,0,2.4,0.6,3.1,1.6v4.7C353.1,36.3,352,36.9,350.8,36.9
		L350.8,36.9L350.8,36.9z"/>
	<path class="st2" d="M133.7,17c4.4,0,6.4-2.4,6.4-5.1c0-6.1-9.6-4.2-9.6-7.3c0-1.2,1.1-2,2.8-2c1.8,0,3.5,0.7,4.8,1.9l1.6-2.1
		c-1.7-1.6-3.9-2.4-6.2-2.4c-3.6,0-6,2.1-6,4.8c0,6,9.6,3.9,9.6,7.3c0,1.1-0.9,2.3-3.3,2.3c-2,0-3.9-0.8-5.2-2.3l-1.6,2.2
		C128.8,16.1,131.2,17.1,133.7,17L133.7,17z M148.1,17c1.8,0.1,3.5-0.7,4.6-2.1l-1.7-1.6c-0.6,0.9-1.6,1.5-2.8,1.4
		c-2.1,0-3.6-1.6-3.6-4c-0.2-2,1.3-3.7,3.3-3.9c0.1,0,0.2,0,0.4,0c1.1,0,2.1,0.5,2.8,1.4l1.7-1.6c-1.1-1.4-2.8-2.2-4.6-2.1
		c-3.3-0.1-6.1,2.5-6.2,5.8c0,0.1,0,0.3,0,0.4c-0.2,3.3,2.4,6.1,5.7,6.3C147.8,17,148,17,148.1,17L148.1,17L148.1,17z M160,17
		c3.3,0.1,6.1-2.5,6.1-5.9c0-0.1,0-0.3,0-0.4c0-3.4-2.8-6.1-6.1-6.1c-3.4,0-6.1,2.8-6.1,6.1c-0.1,3.3,2.4,6.1,5.7,6.2
		C159.7,17,159.9,17,160,17L160,17z M160,14.7c-2.2,0-3.4-1.9-3.4-4s1.2-3.9,3.4-3.9s3.4,1.8,3.4,3.9S162.2,14.7,160,14.7L160,14.7z
		 M172.2,17c0.9,0.1,1.7-0.2,2.4-0.8l-0.6-2c-0.3,0.3-0.7,0.4-1.1,0.4c-0.7,0-1.2-0.6-1.2-1.3c0-0.1,0-0.1,0-0.2V7h2.4V4.8h-2.4V1.5
		h-2.6v3.3h-2V7h2v6.9c-0.2,1.5,0.8,2.9,2.3,3.1C171.7,17,172,17,172.2,17L172.2,17z M180.6,17c0.9,0.1,1.7-0.2,2.4-0.8l-0.6-2
		c-0.3,0.3-0.7,0.4-1.1,0.4c-0.7,0-1.2-0.6-1.2-1.3c0-0.1,0-0.1,0-0.2V7h2.4V4.8h-2.4V1.5h-2.6v3.3h-2V7h2v6.9
		c-0.2,1.5,0.8,2.9,2.3,3.1C180.1,17,180.3,17,180.6,17L180.6,17z M186.1,3.4c0.9,0,1.6-0.7,1.6-1.6s-0.7-1.6-1.6-1.6
		c-0.9,0-1.6,0.7-1.6,1.6C184.5,2.6,185.2,3.4,186.1,3.4C186.1,3.4,186.1,3.4,186.1,3.4L186.1,3.4z M187.4,16.7V4.8h-2.6v11.9
		L187.4,16.7L187.4,16.7z M194.8,17c3.2,0,5-1.6,5-3.7c0-4.7-7.2-3.2-7.2-5.2c0-0.8,0.8-1.5,2.2-1.5c1.3,0,2.6,0.5,3.5,1.4l1.1-1.8
		c-1.3-1.1-2.9-1.7-4.6-1.7c-3,0-4.7,1.7-4.7,3.6c0,4.6,7.2,2.9,7.2,5.2c0,0.9-0.8,1.6-2.4,1.6c-1.5,0-2.9-0.6-4-1.6l-1.2,1.9
		C191.1,16.4,192.9,17.1,194.8,17L194.8,17L194.8,17z M213,16.7V8.3c0-2.4-1.3-3.8-3.9-3.8c-1.6,0-3.1,0.7-4.2,1.9V0.3h-2.6v16.4
		h2.6V8.4c0.7-1,1.9-1.6,3.1-1.6c1.5,0,2.4,0.5,2.4,2.4v7.5L213,16.7L213,16.7z M230.5,17c5.2,0,8.2-3.6,8.2-9.2h-9v2.5h5.9
		c-0.4,2.4-2.4,4.1-4.8,4c-3.1,0-5.7-2.5-5.7-5.6c0-0.1,0-0.2,0-0.3c-0.2-3.1,2.2-5.8,5.3-5.9c0.1,0,0.3,0,0.4,0
		c1.7,0,3.3,0.9,4.2,2.2l2.4-1.3c-1.5-2.2-4-3.5-6.6-3.4c-4.8,0-8.7,3.3-8.7,8.5c-0.1,4.6,3.4,8.4,8,8.5C230.2,17,230.4,17,230.5,17
		L230.5,17z M246.3,17c3.3,0.1,6.1-2.5,6.1-5.9c0-0.1,0-0.3,0-0.4c0-3.4-2.8-6.1-6.1-6.1c-3.4,0-6.1,2.8-6.1,6.1
		c-0.1,3.3,2.4,6.1,5.7,6.2C246,17,246.2,17,246.3,17L246.3,17z M246.3,14.7c-2.2,0-3.4-1.9-3.4-4s1.2-3.9,3.4-3.9s3.4,1.8,3.4,3.9
		S248.5,14.7,246.3,14.7L246.3,14.7z M260.6,16.7l4.9-11.9h-2.8l-3.5,8.9l-3.5-8.9H253l4.9,11.9L260.6,16.7L260.6,16.7z M272.3,17
		c1.8,0,3.5-0.6,4.9-1.8l-1.2-1.7c-0.9,0.9-2.2,1.3-3.4,1.3c-1.9,0.1-3.6-1.3-3.8-3.3h9.3V11c0-3.7-2.3-6.4-5.9-6.4
		c-3.3-0.1-6.1,2.6-6.1,5.9c0,0.1,0,0.2,0,0.3c-0.2,3.3,2.4,6.1,5.7,6.3C271.9,17,272.1,17,272.3,17L272.3,17z M275.5,9.8h-6.7
		c0.1-1.8,1.6-3.2,3.3-3.1c1.8-0.1,3.3,1.3,3.4,3C275.4,9.7,275.4,9.7,275.5,9.8L275.5,9.8L275.5,9.8z M283,16.7V8.6
		c0.7-1,1.9-1.6,3.1-1.6c0.3,0,0.5,0,0.8,0.1V4.5c-1.5,0.1-3,0.8-3.9,2V4.8h-2.6v11.9H283z M299.5,16.7V8.3c0-2.4-1.3-3.8-3.9-3.8
		c-1.6,0-3.2,0.7-4.2,1.9V4.8h-2.6v11.9h2.6V8.4c0.7-1,1.9-1.5,3.1-1.6c1.5,0,2.4,0.6,2.4,2.5v7.4L299.5,16.7L299.5,16.7z M320,16.7
		V8.1c0-2.4-1.3-3.6-3.4-3.6c-1.6,0-3.1,0.8-4.1,2.2c-0.4-1.4-1.8-2.3-3.3-2.2c-1.5,0-2.9,0.7-3.9,1.9V4.8h-2.6v11.9h2.6V8.4
		c0.6-0.9,1.7-1.5,2.8-1.6c1.4,0,2,0.9,2,2.1v7.8h2.6V8.4c0.6-0.9,1.6-1.5,2.8-1.6c1-0.1,1.9,0.7,2,1.7c0,0.2,0,0.3,0,0.5v7.8
		L320,16.7L320,16.7z M328.8,17c1.8,0,3.5-0.6,4.9-1.8l-1.2-1.7c-0.9,0.9-2.2,1.3-3.4,1.3c-1.9,0.1-3.6-1.3-3.8-3.3h9.2V11
		c0-3.7-2.3-6.4-5.9-6.4c-3.3,0-6,2.6-6.1,5.9c0,0.1,0,0.2,0,0.3c-0.1,3.3,2.5,6.1,5.8,6.2C328.5,17,328.7,17,328.8,17L328.8,17
		L328.8,17z M332,9.8h-6.7c0.1-1.8,1.6-3.2,3.3-3.1c1.8-0.1,3.3,1.2,3.4,3C332,9.7,332,9.7,332,9.8L332,9.8z M347.7,16.7V8.3
		c0-2.4-1.3-3.8-3.9-3.8c-1.6,0-3.2,0.7-4.2,1.9V4.8H337v11.9h2.6V8.4c0.7-1,1.9-1.5,3.1-1.6c1.5,0,2.4,0.6,2.4,2.5v7.4L347.7,16.7
		L347.7,16.7z M354.5,17c0.9,0.1,1.7-0.2,2.4-0.8l-0.6-2c-0.3,0.3-0.7,0.4-1.1,0.4c-0.7,0-1.2-0.6-1.2-1.3c0-0.1,0-0.1,0-0.2V7h2.4
		V4.8h-2.4V1.5h-2.6v3.3h-2V7h2v6.9c-0.2,1.5,0.8,2.9,2.3,3.1C354.1,17,354.3,17,354.5,17L354.5,17L354.5,17z"/>
</g>
</svg>
